<?xml version="1.0" encoding="UTF-8"?>
<svg id="Layer_1" data-name="Layer 1" xmlns="http://www.w3.org/2000/svg" viewBox="0 0 137.44 115.01">
  <defs>
    <style>
      .cls-1 {
        fill: #d4d2e3;
      }

      .cls-2 {
        fill: #9795b5;
      }

      .cls-3 {
        fill: #e61e25;
      }
    </style>
  </defs>
  <path class="cls-3" d="M20.37,61.13v8.77c0,.79.63,1.42,1.42,1.42h7.35c.79,0,1.42-.63,1.42-1.42v-7.35c0-.79-.63-1.42-1.42-1.42,0,0-8.77,0-8.77,0Z"/>
  <path class="cls-2" d="M20.37,40.75H1.42c-.79,0-1.42.63-1.42,1.42v17.54c0,.79.63,1.42,1.42,1.42h18.96v-20.38h-.01Z"/>
  <path class="cls-2" d="M20.37,1.42v39.33h39.33c.79,0,1.42-.63,1.42-1.42V1.42c0-.79-.63-1.42-1.42-1.42H21.79c-.79,0-1.42.63-1.42,1.42Z"/>
  <g>
    <path class="cls-1" d="M41.78,70.23v-3.48h3.64v-6.13h4.5v6.13h4.57v3.48h-4.57v11.37h4.57v3.5h-9.07v-14.87h-3.64Z"/>
    <path class="cls-1" d="M58.78,85.1v-24.49h4.5v8.79c.55-.98,1.27-1.75,2.15-2.29s1.98-.81,3.28-.81c2.06,0,3.58.6,4.55,1.8s1.46,2.86,1.46,4.97v12.02h-4.5v-11.71c0-1.08-.23-1.92-.69-2.51s-1.22-.9-2.3-.9c-1.24,0-2.21.41-2.91,1.24s-1.05,1.91-1.05,3.26v10.62h-4.5Z"/>
    <path class="cls-1" d="M79.17,75.89c0-1.44.2-2.75.6-3.93.4-1.18.96-2.19,1.68-3.02.72-.84,1.59-1.49,2.61-1.94s2.15-.69,3.39-.69,2.37.22,3.39.67c1.01.45,1.88,1.06,2.6,1.84.72.78,1.27,1.71,1.65,2.79.38,1.08.57,2.24.57,3.5v2.27h-11.81v1.21c0,1.1.36,1.95,1.08,2.56.72.6,1.58.91,2.56.91s1.79-.26,2.41-.77.99-1.24,1.11-2.18h4.5c-.29,2.04-1.15,3.62-2.58,4.75s-3.26,1.7-5.5,1.7c-1.3,0-2.46-.23-3.49-.7s-1.89-1.12-2.6-1.97c-.71-.84-1.25-1.86-1.62-3.04-.37-1.18-.56-2.5-.56-3.94ZM83.85,73.87h7.21v-.65c0-1.01-.34-1.83-1.02-2.46-.68-.63-1.54-.95-2.59-.95s-1.89.32-2.57.95c-.68.63-1.02,1.45-1.02,2.46v.65Z"/>
    <path class="cls-3" d="M98.96,68.68c0-1.12.19-2.2.56-3.24s.93-1.95,1.68-2.74,1.68-1.42,2.8-1.9,2.46-.72,3.99-.72c3.19,0,5.52,1.01,6.97,3.04,1.46,2.03,2.18,5.1,2.18,9.22,0,1.92-.16,3.7-.48,5.33-.32,1.63-.85,3.03-1.58,4.21-.73,1.18-1.69,2.1-2.87,2.76-1.18.66-2.62.99-4.32.99-2.47,0-4.43-.58-5.87-1.73s-2.26-2.79-2.44-4.9h4.57c.12,1.03.51,1.78,1.17,2.25s1.53.7,2.61.7c1.37,0,2.44-.46,3.21-1.37s1.15-2.1,1.15-3.56v-2.69c-.6.76-1.32,1.33-2.18,1.72-.86.38-1.9.58-3.15.58s-2.29-.19-3.28-.58-1.83-.92-2.52-1.62c-.69-.69-1.23-1.53-1.62-2.5-.39-.97-.58-2.06-.58-3.26ZM103.83,69.59c0,1.13.35,1.98,1.05,2.54.7.56,1.74.84,3.11.84s2.43-.28,3.17-.83c.74-.56,1.12-1.41,1.12-2.55v-2.05c0-1.13-.37-2.05-1.12-2.74-.74-.69-1.8-1.04-3.17-1.04s-2.41.34-3.11,1.03c-.7.69-1.05,1.6-1.05,2.75v2.05Z"/>
    <path class="cls-3" d="M119.69,85.1l6.33-9.65-5.82-8.7h4.96l3.39,5.4,3.38-5.4h4.87l-5.77,8.7,6.42,9.65h-4.9l-3.99-6.26-3.92,6.26h-4.94Z"/>
  </g>
  <g>
    <path class="cls-1" d="M44.34,114.57v-5.19h5.22v5.19h-5.22Z"/>
    <path class="cls-1" d="M53.72,109.35c0-1.49.52-2.77,1.55-3.85,1.03-1.08,2.52-1.7,4.46-1.88l5.08-.42v-1.2c0-.96-.26-1.66-.77-2.08s-1.22-.64-2.11-.64-1.66.22-2.23.66-.86,1.08-.86,1.92h-4.5c.02-1.01.24-1.89.65-2.65s.96-1.39,1.63-1.89,1.49-.89,2.43-1.15,1.96-.4,3.06-.4c2.2,0,3.94.53,5.22,1.6s1.92,2.63,1.92,4.69v9h3.09v3.5h-7.08l-.04-2.85h-.16c-.53,1.01-1.23,1.81-2.1,2.4s-2.02.89-3.44.89c-.84,0-1.61-.14-2.31-.42s-1.31-.67-1.84-1.18-.93-1.1-1.22-1.78-.43-1.44-.43-2.29ZM58.4,109.86c0,.55.25.96.76,1.24s1.15.41,1.95.41c1.15,0,2.05-.41,2.72-1.22.66-.81.99-1.8.99-2.95v-.72l-5.4.47c-.67.07-1.01.47-1.02,1.19v1.58Z"/>
    <path class="cls-1" d="M74.52,105.5c0-1.51.19-2.87.58-4.07.39-1.2.94-2.22,1.66-3.06.72-.84,1.58-1.48,2.59-1.92s2.14-.67,3.41-.67c.96,0,1.88.13,2.76.38s1.67.65,2.38,1.19,1.28,1.23,1.72,2.07c.44.84.71,1.84.82,3h-4.5c-.12-1.17-.48-1.99-1.08-2.44s-1.37-.69-2.28-.69-1.71.29-2.38.88c-.67.59-1,1.49-1,2.71v5.04c0,1.12.32,2.01.95,2.65.63.64,1.46.96,2.47.96s1.81-.24,2.39-.72.94-1.33,1.08-2.55h4.5c-.12,1.15-.39,2.14-.83,2.98-.43.84-1,1.54-1.7,2.1s-1.49.98-2.38,1.27c-.89.28-1.83.42-2.84.42-1.37,0-2.57-.23-3.6-.7s-1.9-1.12-2.61-1.95c-.71-.83-1.24-1.83-1.59-2.99-.35-1.16-.53-2.45-.53-3.87Z"/>
  </g>
</svg>