<?xml version="1.0" encoding="UTF-8"?>
<svg id="Layer_2" data-name="Layer 2" xmlns="http://www.w3.org/2000/svg" viewBox="0 0 230.48 66.47">
  <defs>
    <style>
      .cls-1 {
        fill: #d4d2e3;
      }

      .cls-2 {
        fill: #9795b5;
      }
    </style>
  </defs>
  <g id="Layer_1-2" data-name="Layer 1">
    <g>
      <g>
        <path class="cls-1" d="M0,8.6c0-1.12.19-2.2.56-3.24s.93-1.95,1.68-2.74,1.68-1.42,2.8-1.9,2.46-.72,3.99-.72c3.19,0,5.52,1.01,6.97,3.04,1.46,2.03,2.18,5.1,2.18,9.22,0,1.92-.16,3.7-.48,5.33-.32,1.63-.85,3.03-1.58,4.21-.73,1.18-1.69,2.1-2.87,2.76-1.18.66-2.62.99-4.32.99-2.47,0-4.43-.58-5.87-1.73s-2.26-2.79-2.44-4.9h4.57c.12,1.03.51,1.78,1.17,2.25s1.53.7,2.61.7c1.37,0,2.44-.46,3.21-1.37s1.15-2.1,1.15-3.56v-2.69c-.6.76-1.32,1.33-2.18,1.72-.86.38-1.9.58-3.15.58s-2.29-.19-3.28-.58-1.83-.92-2.52-1.62c-.69-.69-1.23-1.53-1.62-2.5-.39-.97-.58-2.06-.58-3.26ZM4.87,9.5c0,1.13.35,1.98,1.05,2.54.7.56,1.74.84,3.11.84s2.43-.28,3.17-.83c.74-.56,1.12-1.41,1.12-2.55v-2.05c0-1.13-.37-2.05-1.12-2.74-.74-.69-1.8-1.04-3.17-1.04s-2.41.34-3.11,1.03c-.7.69-1.05,1.6-1.05,2.75v2.05Z"/>
        <path class="cls-1" d="M20.72,25.01l6.33-9.65-5.82-8.7h4.96l3.39,5.4,3.38-5.4h4.87l-5.77,8.7,6.42,9.65h-4.9l-3.99-6.26-3.92,6.26h-4.94Z"/>
        <path class="cls-2" d="M49.03,10.14v-3.48h3.64V.53h4.5v6.13h4.57v3.48h-4.57v11.37h4.57v3.5h-9.07v-14.87h-3.64Z"/>
        <path class="cls-2" d="M66.02,25.01V.53h4.5v8.79c.55-.98,1.27-1.75,2.15-2.29s1.98-.81,3.28-.81c2.06,0,3.58.6,4.55,1.8s1.46,2.86,1.46,4.97v12.02h-4.5v-11.71c0-1.08-.23-1.92-.69-2.51s-1.22-.9-2.3-.9c-1.24,0-2.21.41-2.91,1.24s-1.05,1.91-1.05,3.26v10.62h-4.5Z"/>
        <path class="cls-2" d="M86.41,15.8c0-1.44.2-2.75.6-3.93.4-1.18.96-2.19,1.68-3.02.72-.84,1.59-1.49,2.61-1.94s2.15-.69,3.39-.69,2.37.22,3.39.67c1.01.45,1.88,1.06,2.6,1.84.72.78,1.27,1.71,1.65,2.79.38,1.08.57,2.24.57,3.5v2.27h-11.81v1.21c0,1.1.36,1.95,1.08,2.56.72.6,1.58.91,2.56.91s1.79-.26,2.41-.77.99-1.24,1.11-2.18h4.5c-.29,2.04-1.15,3.62-2.58,4.75s-3.26,1.7-5.5,1.7c-1.3,0-2.46-.23-3.49-.7s-1.89-1.12-2.6-1.97c-.71-.84-1.25-1.86-1.62-3.04-.37-1.18-.56-2.5-.56-3.94ZM91.09,13.78h7.21v-.65c0-1.01-.34-1.83-1.02-2.46-.68-.63-1.54-.95-2.59-.95s-1.89.32-2.57.95c-.68.63-1.02,1.45-1.02,2.46v.65Z"/>
        <path class="cls-2" d="M116.17,4.54V.53h4.64v4.01h-4.64ZM116.24,25.01V6.66h4.5v18.35h-4.5Z"/>
        <path class="cls-2" d="M126.28,25.01V6.66h4.5v2.65c.53-.98,1.2-1.75,2.01-2.29s1.83-.81,3.05-.81c1.32,0,2.41.3,3.26.89s1.48,1.44,1.89,2.54c1.2-2.29,3.06-3.43,5.59-3.43,1.88,0,3.28.6,4.23,1.8s1.42,2.86,1.42,4.97v12.02h-4.5v-11.71c0-2.27-.86-3.41-2.58-3.41h-.04c-1.08,0-1.95.41-2.61,1.24s-.99,1.91-.99,3.26v10.62h-4.5v-11.71c0-2.27-.87-3.41-2.6-3.41h-.04c-1.08,0-1.95.41-2.6,1.24s-.98,1.91-.98,3.26v10.62h-4.5Z"/>
        <path class="cls-2" d="M157.62,31.13V6.66h4.5v2.48c.57-.91,1.3-1.63,2.19-2.14s1.94-.77,3.17-.77,2.29.25,3.2.76,1.67,1.19,2.27,2.05,1.04,1.88,1.33,3.06.43,2.43.43,3.75-.14,2.6-.43,3.76-.73,2.17-1.33,3.04-1.35,1.55-2.27,2.06-1.98.76-3.2.76-2.27-.26-3.16-.77-1.62-1.23-2.2-2.14v8.6h-4.5ZM162.12,17.21c0,1.44.33,2.59.98,3.45s1.71,1.29,3.15,1.29c1.17,0,2.09-.32,2.77-.96s1.01-1.5,1.01-2.58v-5.19c0-1.08-.33-1.93-1-2.57s-1.59-.95-2.78-.95c-1.44,0-2.49.43-3.15,1.29s-.98,2.01-.98,3.45v2.74Z"/>
        <path class="cls-2" d="M178.22,19.79c0-1.49.52-2.77,1.55-3.85,1.03-1.08,2.52-1.7,4.46-1.88l5.08-.42v-1.2c0-.96-.26-1.66-.77-2.08s-1.22-.64-2.11-.64-1.66.22-2.23.66-.86,1.08-.86,1.92h-4.5c.02-1.01.24-1.89.65-2.65s.96-1.39,1.63-1.89,1.49-.89,2.43-1.15,1.96-.4,3.06-.4c2.2,0,3.94.53,5.22,1.6s1.92,2.63,1.92,4.69v9h3.09v3.5h-7.08l-.04-2.85h-.16c-.53,1.01-1.23,1.81-2.1,2.4s-2.02.89-3.44.89c-.84,0-1.61-.14-2.31-.42s-1.31-.67-1.84-1.18-.93-1.1-1.22-1.78-.43-1.44-.43-2.29ZM182.9,20.31c0,.55.25.96.76,1.24s1.15.41,1.95.41c1.15,0,2.05-.41,2.72-1.22.66-.81.99-1.8.99-2.95v-.72l-5.4.47c-.67.07-1.01.47-1.02,1.19v1.58Z"/>
        <path class="cls-2" d="M199.02,15.94c0-1.51.19-2.87.58-4.07.39-1.2.94-2.22,1.66-3.06.72-.84,1.58-1.48,2.59-1.92s2.14-.67,3.41-.67c.96,0,1.88.13,2.76.38s1.67.65,2.38,1.19,1.28,1.23,1.72,2.07c.44.84.71,1.84.82,3h-4.5c-.12-1.17-.48-1.99-1.08-2.44s-1.37-.69-2.28-.69-1.71.29-2.38.88c-.67.59-1,1.49-1,2.71v5.04c0,1.12.32,2.01.95,2.65.63.64,1.46.96,2.47.96s1.81-.24,2.39-.72.94-1.33,1.08-2.55h4.5c-.12,1.15-.39,2.14-.83,2.98-.43.84-1,1.54-1.7,2.1s-1.49.98-2.38,1.27c-.89.28-1.83.42-2.84.42-1.37,0-2.57-.23-3.6-.7s-1.9-1.12-2.61-1.95c-.71-.83-1.24-1.83-1.59-2.99-.35-1.16-.53-2.45-.53-3.87Z"/>
        <path class="cls-2" d="M217.78,10.14v-3.48h3.64V.53h4.5v6.13h4.57v3.48h-4.57v11.37h4.57v3.5h-9.07v-14.87h-3.64Z"/>
      </g>
      <g>
        <path class="cls-1" d="M142.18,39.87v-4.01h4.64v4.01h-4.64ZM142.25,60.35v-18.35h4.5v18.35h-4.5Z"/>
        <path class="cls-1" d="M151.37,51.18c0-1.32.15-2.58.44-3.75.29-1.18.74-2.2,1.33-3.06s1.35-1.54,2.26-2.05c.91-.5,1.98-.76,3.19-.76s2.28.26,3.17.77,1.63,1.23,2.2,2.14v-8.61h4.5v24.49h-4.5v-2.48c-.58.91-1.29,1.63-2.16,2.14s-1.91.77-3.14.77-2.28-.25-3.19-.76c-.91-.5-1.67-1.19-2.28-2.06s-1.06-1.88-1.37-3.05c-.3-1.17-.46-2.42-.46-3.75ZM156.05,53.76c0,1.03.34,1.88,1.02,2.54.68.66,1.6.99,2.77.99,1.44,0,2.5-.43,3.15-1.3.66-.87.99-2.02.99-3.45v-2.74c0-1.44-.33-2.59-.99-3.45-.66-.86-1.71-1.29-3.15-1.29-1.17,0-2.1.33-2.78.98-.67.66-1.01,1.5-1.01,2.53v5.19Z"/>
        <path class="cls-1" d="M173.06,51.14c0-1.44.2-2.75.6-3.93.4-1.18.96-2.19,1.68-3.02.72-.84,1.59-1.49,2.61-1.94s2.15-.69,3.39-.69,2.37.22,3.39.67c1.01.45,1.88,1.06,2.6,1.84.72.78,1.27,1.71,1.65,2.79.38,1.08.57,2.24.57,3.5v2.27h-11.81v1.21c0,1.1.36,1.95,1.08,2.56.72.6,1.58.91,2.56.91s1.79-.26,2.41-.77.99-1.24,1.11-2.18h4.5c-.29,2.04-1.15,3.62-2.58,4.75s-3.26,1.7-5.5,1.7c-1.3,0-2.46-.23-3.49-.7s-1.89-1.12-2.6-1.97c-.71-.84-1.25-1.86-1.62-3.04-.37-1.18-.56-2.5-.56-3.94ZM177.74,49.12h7.21v-.65c0-1.01-.34-1.83-1.02-2.46-.68-.63-1.54-.95-2.59-.95s-1.89.32-2.57.95c-.68.63-1.02,1.45-1.02,2.46v.65Z"/>
        <path class="cls-1" d="M192.92,55.13c0-1.49.52-2.77,1.55-3.85,1.03-1.08,2.52-1.7,4.46-1.88l5.08-.42v-1.2c0-.96-.26-1.66-.77-2.08s-1.22-.64-2.11-.64-1.66.22-2.23.66-.86,1.08-.86,1.92h-4.5c.02-1.01.24-1.89.65-2.65s.96-1.39,1.63-1.89,1.49-.89,2.43-1.15,1.96-.4,3.06-.4c2.2,0,3.94.53,5.22,1.6s1.92,2.63,1.92,4.69v9h3.09v3.5h-7.08l-.04-2.85h-.16c-.53,1.01-1.23,1.81-2.1,2.4s-2.02.89-3.44.89c-.84,0-1.61-.14-2.31-.42s-1.31-.67-1.84-1.18-.93-1.1-1.22-1.78-.43-1.44-.43-2.29ZM197.6,55.64c0,.55.25.96.76,1.24s1.15.41,1.95.41c1.15,0,2.05-.41,2.72-1.22.66-.81.99-1.8.99-2.95v-.72l-5.4.47c-.67.07-1.01.47-1.02,1.19v1.58Z"/>
        <path class="cls-1" d="M213.47,54.52h4.5c.19,1.85,1.29,2.78,3.32,2.78.87,0,1.61-.16,2.21-.48.61-.32.91-.83.91-1.54s-.25-1.15-.76-1.45c-.5-.3-1.17-.54-1.99-.71l-3.16-.69c-3.07-.67-4.61-2.42-4.61-5.26,0-.8.16-1.54.48-2.21s.79-1.27,1.4-1.78,1.35-.9,2.23-1.19,1.88-.43,3.01-.43c2.09,0,3.8.5,5.13,1.51s2.05,2.53,2.14,4.57h-4.5c-.05-.87-.32-1.51-.83-1.94s-1.15-.64-1.95-.64-1.4.18-1.89.53c-.49.35-.73.84-.73,1.47s.18,1.09.54,1.39c.36.3.83.52,1.41.66l3.64.78c.67.14,1.32.34,1.93.6.61.27,1.13.61,1.57,1.03.44.42.78.92,1.04,1.49.25.58.38,1.26.38,2.06s-.17,1.54-.51,2.23-.83,1.29-1.48,1.81-1.44.93-2.39,1.23-2.03.46-3.25.46c-2.45,0-4.34-.54-5.68-1.63s-2.05-2.63-2.14-4.65Z"/>
      </g>
      <g>
        <path class="cls-2" d="M50.54,42h4.83l3.99,13.1h.14l4.11-13.1h4.76l-8.88,24.47h-7.84v-3.48h4.61l.9-2.64-6.63-18.35Z"/>
        <path class="cls-2" d="M70.93,51.18c0-1.44.19-2.75.58-3.93.39-1.18.95-2.19,1.68-3.04s1.63-1.5,2.7-1.96,2.28-.69,3.65-.69,2.59.23,3.66.69,1.97,1.11,2.7,1.96c.73.85,1.29,1.86,1.67,3.04.38,1.18.57,2.49.57,3.93s-.19,2.75-.57,3.92c-.38,1.17-.94,2.19-1.67,3.04-.73.86-1.63,1.51-2.7,1.97s-2.29.69-3.66.69-2.59-.23-3.65-.69-1.96-1.11-2.7-1.97-1.29-1.87-1.68-3.04c-.39-1.17-.58-2.48-.58-3.92ZM75.61,53.83c0,1.1.37,1.95,1.12,2.56.75.6,1.68.91,2.81.91s2.06-.29,2.81-.88c.75-.59,1.12-1.45,1.12-2.58v-5.33c0-1.12-.37-1.98-1.12-2.57-.75-.59-1.68-.88-2.81-.88s-2.06.3-2.81.9c-.75.6-1.12,1.45-1.12,2.55v5.33Z"/>
        <path class="cls-2" d="M92.55,54.02v-12.02h4.5v11.69c0,1.08.21,1.92.63,2.52s1.17.91,2.25.91c1.22,0,2.18-.42,2.88-1.25s1.05-1.92,1.05-3.25v-10.62h4.5v18.35h-4.5v-2.67c-.55,1.01-1.27,1.78-2.14,2.31s-1.97.8-3.27.8c-1.97,0-3.45-.59-4.43-1.78s-1.48-2.85-1.48-4.98Z"/>
        <path class="cls-2" d="M113.91,60.35v-18.35h10.25v3.52h-5.75v14.84h-4.5Z"/>
      </g>
      <g>
        <path class="cls-2" d="M1.83,51.61c0-1.44.19-2.75.58-3.93.39-1.18.95-2.19,1.68-3.04s1.63-1.5,2.7-1.96,2.28-.69,3.65-.69,2.59.23,3.66.69,1.97,1.11,2.7,1.96c.73.85,1.29,1.86,1.67,3.04.38,1.18.57,2.49.57,3.93s-.19,2.75-.57,3.92c-.38,1.17-.94,2.19-1.67,3.04-.73.86-1.63,1.51-2.7,1.97s-2.29.69-3.66.69-2.59-.23-3.65-.69-1.96-1.11-2.7-1.97-1.29-1.87-1.68-3.04c-.39-1.17-.58-2.48-.58-3.92ZM6.51,54.26c0,1.1.37,1.95,1.12,2.56.75.6,1.68.91,2.81.91s2.06-.29,2.81-.88c.75-.59,1.12-1.45,1.12-2.58v-5.33c0-1.12-.37-1.98-1.12-2.57-.75-.59-1.68-.88-2.81-.88s-2.06.3-2.81.9c-.75.6-1.12,1.45-1.12,2.55v5.33Z"/>
        <path class="cls-2" d="M21.9,45.91v-3.48h3.6v-6.13h9.07v3.5h-4.57v2.64h4.22v3.48h-4.22v14.87h-4.5v-14.87h-3.6Z"/>
      </g>
    </g>
  </g>
</svg>